<mxfile host="app.diagrams.net" agent="Mozilla/5.0 (Windows NT 10.0; Win64; x64) AppleWebKit/537.36 (KHTML, like Gecko) Chrome/138.0.0.0 Safari/537.36 Edg/138.0.0.0" version="27.1.6">
  <diagram name="第 1 页" id="OQArsMxj8ymp7fhEoSe1">
    <mxGraphModel dx="1017" dy="530" grid="1" gridSize="10" guides="1" tooltips="1" connect="1" arrows="1" fold="1" page="1" pageScale="1" pageWidth="1200" pageHeight="1920" math="0" shadow="0">
      <root>
        <mxCell id="0" />
        <mxCell id="1" parent="0" />
        <mxCell id="6x7_ktclrAlzUBMvFhtq-1" value="Form&lt;div&gt;ORDERITEMS&lt;/div&gt;" style="whiteSpace=wrap;html=1;" vertex="1" parent="1">
          <mxGeometry x="190" y="80" width="120" height="60" as="geometry" />
        </mxCell>
        <mxCell id="6x7_ktclrAlzUBMvFhtq-2" value="BaseTable&lt;div&gt;ORDERITEMS&lt;/div&gt;" style="whiteSpace=wrap;html=1;" vertex="1" parent="1">
          <mxGeometry x="360" y="80" width="120" height="60" as="geometry" />
        </mxCell>
        <mxCell id="6x7_ktclrAlzUBMvFhtq-3" value="&lt;div&gt;ColumnName&lt;/div&gt;CUSTPARTNAME" style="whiteSpace=wrap;html=1;" vertex="1" parent="1">
          <mxGeometry x="190" y="170" width="120" height="60" as="geometry" />
        </mxCell>
        <mxCell id="6x7_ktclrAlzUBMvFhtq-4" value="Table&lt;div&gt;CUSTPART&lt;/div&gt;" style="whiteSpace=wrap;html=1;" vertex="1" parent="1">
          <mxGeometry x="550" y="40" width="120" height="60" as="geometry" />
        </mxCell>
        <mxCell id="6x7_ktclrAlzUBMvFhtq-5" value="&lt;div&gt;SELECT PARTNAME, CUSTPARTNAME&lt;/div&gt;&lt;div&gt;FROM&amp;nbsp; &amp;nbsp;CUSTPART, PART&lt;/div&gt;&lt;div&gt;WHERE&amp;nbsp; CUSTPART.CUST = :$$.CUST&lt;/div&gt;&lt;div&gt;AND&amp;nbsp; &amp;nbsp; CUSTPART.PART = PART.PART ;&lt;/div&gt;&lt;div&gt;&lt;br&gt;&lt;/div&gt;" style="text;html=1;align=center;verticalAlign=middle;resizable=0;points=[];autosize=1;strokeColor=none;fillColor=none;" vertex="1" parent="1">
          <mxGeometry x="520" y="430" width="240" height="90" as="geometry" />
        </mxCell>
        <mxCell id="6x7_ktclrAlzUBMvFhtq-6" value="&lt;div&gt;ColumnName&lt;/div&gt;PARTNAME" style="whiteSpace=wrap;html=1;" vertex="1" parent="1">
          <mxGeometry x="190" y="370" width="120" height="60" as="geometry" />
        </mxCell>
        <mxCell id="6x7_ktclrAlzUBMvFhtq-7" value="Table&lt;div&gt;PART&lt;/div&gt;" style="whiteSpace=wrap;html=1;" vertex="1" parent="1">
          <mxGeometry x="880" y="40" width="120" height="60" as="geometry" />
        </mxCell>
        <mxCell id="6x7_ktclrAlzUBMvFhtq-9" value="&lt;div&gt;ColumnName&lt;/div&gt;CUSTPARTNAME" style="whiteSpace=wrap;html=1;" vertex="1" parent="1">
          <mxGeometry x="190" y="460" width="120" height="60" as="geometry" />
        </mxCell>
        <mxCell id="6x7_ktclrAlzUBMvFhtq-12" value="" style="shape=image;verticalLabelPosition=bottom;labelBackgroundColor=default;verticalAlign=top;aspect=fixed;imageAspect=0;image=data:image/png,iVBORw0KGgoAAAANSUhEUgAACzwAAAB3CAYAAAB8QqSZAAAAAXNSR0IArs4c6QAAAARnQU1BAACxjwv8YQUAAAAJcEhZcwAADsMAAA7DAcdvqGQAAHWMSURBVHhe7d19rDVHfSf4b1V3n3Mfm8yGBM8oayRMbEexPTCR0CzIVgbLZHi1vQQnwDixIqHBBFnYj5CARELyYykSGCT0gGUxGIkNY5PFDAYv5iUwiwUTGeGVGCVB2DP72IMnybMrQnaCsZ/n3nO6u2r/+FV1V9fpvt3n3nPuPS/fz33quff0e1X36Zfq6l+rv/3bv7UgWiOlSeJOQLUVWygoyD/5DaVQlOdRlLvYGV+AnZ0TMBawxsJYC2sBWOsm4SfErwWtqDLuQES05VpOC4ZRcYcW7ecDbV3dGUgv5f+z6JjSwdVTa1sSP1MLqwDAQiNDghGMmcKYKZQeQesRSpvD2CmgJE/+f8mlTEV+Nz8Tba/qS93Df5c8+U42elv/Rz2EGjTtDaJcQbhsK2hUV2tKykwjg+b+i5aB11t0lHrPY9v2UFt2TNhiRit3vp7BlnK803oEpTMY5ChtHmwh8flF+9azMO44awFIxeoq6yqJKgeB+PMxUn6563OitaUAFHFHIiIi6r8eIFq86tSyqhRz550Krr4trerbtKtvM8hhbF5PpHEvRGrtus662/us+wnuapL1EJR3VPQqWL9lOZH1m4xgbQ6DPBihvt5Tvet3dey7VdWbuZCbZHPadw5EB7ew639VbeVFuYui2EWqfwGp/gVAGQBGfiuzz/bc1X27NUtlwP5jwCB+IGVRzWF46ddDDprVmmsvFwXFBs+0bkojm6x88ff7+vpN28LYAsYUSNMR0jSTPm58+du60zXXALrjK7M00blnY+7Roii1f/+liJavzzKX71jyf9yCQtfQYR8ioq1nYeJOAww5mnn1gab9kNOs8plnykKmOmS8Yce/cErNv6WsLKy7mNVIoJAA1gDWwCKBUgmMNTDWQKn6Olv5Bogxa1tOXo7IHOdPB3LY6S/w/Kmq79jHfuMfi8OWX5+VmL7vMzNEBxVtDRZQdcPbWrTCj6Mh0aD872O/8VvI4FG+HY0EFsYlCwvj9l8prC2Xs//ab/nbho9F4x/GkNntZ8j8585fnznzv/D5h6IF6FsexestOkLG7n8eK/uvNsO/KHN/vxa8/zvy8ZftCJfPagUNDWUTwJawpoRSCaATWJQ910GHvUnWTjZJKQSlwlMUX5/aY9nlF00//qvi5tU+y/augxw2f8H4WqmWMpUOs90XpLX8uvXlr7G9DJoiERHRdmk7n+s7vi7cYc9fFuhA93+XvfyHnf6c51d9Djt/fx4ZjhqcskFBQyGB9dcfWurbfL1ct67rj3oBmtcPGJiBHnOW79yzj8sv7Ddk/DkcaPvv41ZutY6tlsASpoSxBbRKoFTq1q+LABDWQ9jqv6XrrP4IDCqfAdNpGyj8fnTrHaBpju3nQOt/2dt/nznyt5KWvfxzTF/rRV3/11fexuYoTQ6tRtBqJH19T4VgIdrmM2Cmc+TvQJY9/QNzC+aXzw78Au5DdR1C9zX/GHOJyv+wFrL+GmUuH5S1831FiI7f0L2GlQY81fAK8Dcvh4xOREREtGGkcbZUUCr3U50jWbmote7i1jcYVOC5ExGtCuNC8Pp9F/dfRES0BWxUHcpjGxERERERHVTYPCi+trBRx7g/rYl92tP4SlTf+rFjMCJaZ34/H1YoMdAHbZa6wfM6NXvmQXfLhRvrPhuD9Q16/A48aNTTNdo6fQ9oO3Vtu0RE24rH7rnEDZ6r8yOlACtPEduwwaCv9wqPPyxzogXbpwJ6U8XZtRZSNaFcXXs8gNfcf1XXdpu8/+oqitA65uuoDCk/olXA7zHF/P7Lbxv+ABf2iy1rO6qWRY7Xyj9ZhCXOc9spX7bBeg+tcrnvt70QERFRt1U+vtOG2Gcjq84/Hesr1lquP/aZDB2n5oqxwfl44w1SVYN3v37jFbyB4utrolWylOt/N5KyfofebPB8oGkuSdv3s6UYgBVb7lDX8g6xqnlaA+p/+8xnVrb4GrGngw1Eaz55sM1s/MrPji1YGvTIKxUV/MmaT3CNe+S3hQsJhnjDixxmR0Xz6VoNW74OFPd/RES0BazZ7xV5RMek6/x0P22VNXUN1paf2/rGzUBZlihLA619BXzd8DlRCaz7qR9odeO73xaQRs/uN5R114BxEUcr0a7HOtA6gdYa1hoYt3+sL1sPsmFuG7elBOs6LL9G+e5XH0C0aFbqrPg9pjaNQ1S4iVQdg/OJpZPjclmWMMZAKRXVz9fH9LWyX/Ede35UddzXOkGS6Gp/sfov7Ky3F39+l2ZZPBARERG5Yzqv7+koxdtboyGsd5jrj65B9hu9ZRHo8IwxKMsSWutqPYf/N8t9/5XQtpkcyBFsA22zGDT5thGHGDRxov0c/vo/fo7BdQ3+9t9+1bJDdpFk2hzB9q2UBLMJF0JrDa01jLGw1sz0P3Kt5dvSodH+sO6stYZONKwxMMbKuoWfbj3sPDms5jyzTBuqZTNVD9z/QEvn1VaUZdyJtkiSJnGnWdUmHe956t+NE7PGgWK9vg+0Xbj/IyKibZAmA873iNZWXKG0jeoGzdIgxsCYMmjsXF+vKUiDZ0CeZPUNnn0VnRfX/XXX86xb2ddlUVfsxd28dcvbMtVbQH3tL+UWVpDaIHCGtUBRFn5goqVLdAKl2ir2/UbL7/RWi04XjufsIaw/VTBGbsD5CGHt2y8tirUWxlgkiUaSJC5CG4A5bnoere7txcQBTIiIiMjVf4bX96t4fKft4N+g5gIIVLVPPMtfN2ED9tnrt6C2NNjfWITVaPJHMCQRHYHFXf+7oDBAvQdXkCAxjW94OM15pr94SulqGeL7H74cVrP+qd5Tyu7VlW7P/Yc6f7Ie5lu/FFLv/sN3r1/p8Qi71Zob7JDNN9xggp0OUI8/ZDJEq4D7PyIi2gY8NyPaaL6CSv6uG8S4vkElvEV9qyWiUFUOdV3XxWOuY92RUqgiGfiKPqU0tJ6t4FvH/C1LeA/Hl1tdUQpXmSi/w/LVCd+oQ0fHVJHtpWLff4ebleC0rZQavgG0byvxUXB+4b4TVcQhG3SX5F+VTIskZWqtRZIkwQ1Pn+Lhj1/79uLOX/Tht0ciIqJNY41pXN/zfIqOSrPOxAvq1xpmu7Vvqq0TpSPUfj4eXr/5BoPh9Vvbymxbl23diGgxFnz9X31dw8bPvrPrMu80l0jeIFbX1cs5UXP/1VZ/etwOev9B9sU8/1sE9c5/+29dEQdWvDyzEV+Bts2mRT7HBhuffNWfGzt0b79JEa0A7v+IiGgb5NM87kREqy6+9HIat0uC2of6TyuvVtQav/iLv4if/ePP8Py553HRi16EoigwadsftM7LzSW6pmvMP9bZY3VYa/BLv/RL+PnPf47nn38eL3rRRZjmU+TTaVCRFo3T+WFDRWUQF4lsZq6y1DehV/ICPyiFF77whXj2Z8/i3Llz+Cf/0z+JxiZanvFohOl0iul06rq4qFp+37UN31/qNKTBc/sQqqvHAfhXbMpvrTW0csfrn/0Mzz//HH75l1+EvMhR5Hm9B453xLGFLd/mesEvvADP/uxZvPCFL8RksofJZOL61PuJToss3455VedX9X+Nz9X24s7vnnvuucb4RERE5K8Hcrke2LfygmhBgnO72dO8/TbC4HxvxiKvP+hwhly//TLyPEdRRG848xtE67qc3VqIaHEWdv0/M+w+DZ691u/80ZKGwGjUKb3whS/Es88+i/PnzuGiiy6K6k+9OcvnMKL5xLOt9r0D7j9cdNGLeP63IMquYXPxmQMwbZUkTeNOTrwpx7uZpv37Eq2mRe//Pve5zwEAfu/3fi/uRUS0FNzv0BBp5/keEa01V+HTjFBgkWXyUN/5c+fw5Ycfxs54jNe97vU4ccEJJEkST2WrlEWJ8+fP4Wtf/7qUy+tfjzRJkCQplPaRsGk/1loYY2CNhbHyKk+tdfX7ueeew1cfeQQnLrgA119/fTz6Wtq0861Nzc/b3/Z2JImGThKoIBIIK6xoVVhjYKyFdZFostEIAHDu+XN4+OEvIxuN8Np//Vrs7Iyxs7PD7XeBPvXvPoVf/uVfwltuuqk6fmmloNzxa6WO/65BhXXbirEG1lqM/PZy7hy++MUvAhu4H9+U/Kwalu962LT1xPystk3Nz9vf/naJ5Ki1NIpZpeM7Ea2dtuu3uiEh0XZzjwPMNinbT9X+drnH584mmweef8+DKApzFgStu2ptd6z2+M0AOk3xN3//9zBJApOk9YjSstttkVIHOO/WGeva/IdQZVnWeTvMlI7QuiwnLcl+r8BzX7D2b1azQ70f5/ZE62PR+79NqygiotXH/Q4NwQp+ojXln1pvYV1jmLYaDB8BcDqd4sEHH0SapLjpd26Sm35ax4MPEFbArDlrkRcFHvriF6G1xlvechN0IuVVaSn3rrLeaC3lgGDbs/KOOMAdZ3yD58lkgi984QvIsgy/+7u/G4++ljbtfGtj83PzzW5b1NXDIP4cyL9mlug4xccSHyFsMtnDgw8+iCRJcNNNv1Mdl8Lttw236eH+/Wf/PUbjEd721rdW70lVvr675XgXr6uFapmf5x9eQ3ja5T4nSVIdZz//+c8Dm7gf35D8rBqW73rYtPXE/Ky2Tc3PzTffXJ1DLfVYTrSf6lxTVI0C5QOtkXg/orWGYYNnWgB1yN1B1/VkaL/pH3b8hv2OtR11GX35P2z/WPtS7K85/WgKdrZTPAZtkbZVr6TOyT/AnmQj/O1P/x5GpzBJUo8kBxo3SlubzANoW56Bkg9+8IOnLPzT9xbWSAZWOS2k0GhtGfdUWrxdzJtM+HkNtnsmJruE/d8Pf/hDAMDLXv6yuBcR0VJwv0NDGJ6bMTGtV4KVusJGt7qBqTFGkntC3Nex+Uan1lqUZYk0TfFXf/VXKE2JV7ziFdV4M/ObO0XTMHH/1U0KCmmW4i//8i8xmU7xL37jX1QNySyi61rr1oWv37Fbcq3rtr/ObuEBpio7d2mlFJIkwX/+z/8ZRVHg5f/i5eHQa2vTzrc2NT+/8Ru/AQUl3+WW/V38mWnLkmsEP1da9PENsp/0x2xrLIqyQJIk+Mu//CuUxuBf/st/CeuO4/G48rdE2LeNuti6G1N7+q//5b9iOp3in7/sn1cP6EAF51Z29hi/8PIden7nzvH80VW5SNSmOr9L8Nd//dfABu7HNyU/q4blux42bT0xP6ttU/PzG7/xG/X1fcv1ABPTUlJ1ndGsRzHx+WQ8XltaxDkn0+ISZq/frDXSwJOJ6RDJtnSbJ81sqy2pa7iu7nGK5xmnatiqrsL9HaaW8fy4XcsxT/+uFPcPl2doknGrEZsJLd26hmXayNTYXtp+LABYGP+GzDTFc+fPw2oNq3TVYt5tTVXU8Y5nBI6M9gvkfy+6MR3R8VP9G7byETKYmFY8ERERbYP4+MfExLTaSf6r6smEfKq6ueH8pVdVpzYzHuqKuoWJFniNrv/c7QqXjWDZEVRKhuUclWU8vY1M8l+Vd18sVWVvtJVJf1/JJ5FuqohaREfIVzI3uoW/422dabvSQcTTmDe1se4YE2yvCvVNDX+8rqI6V/tTf1Nl9jgPrM9x+LiStQZQdbnWN6bkqF//vcTylf+i6fslCPdTjZGkf+MY7LsTERFRqGpc6s+y4mMxE9MyUv3H4cXTZjra1Ca6fouvGZiY+tLshubqo+NukGv/OMXDVOP3pY6N2gKzw7aleJ7R8s1Ms2N+M9N1KZ6G55evr3+8bOHySaTcMC9Oy3J0ppb8xOumPbWvR6bNSkNYADbYjOJp1NOpt/eh014WjWghfCZWOs02SGfaoiTfsfiA0Ka932wXL54mE9Pqpfj7cNjkxd2ZmJiYlpW432EakuLjHxMT06qnJuv380DQmE+5QeuKu6rBjq2HlHElauCgGpPZ2Q8U52E1U10+dVdAyrIur7qcZ4tsdpqbl7pV5RNsj/7H+AjZsEGDss1IVf5b+q1j2tz8RA93zGzO8bbOxBSnxWwv1fEkqoOvjs2+MY67eR7ehDOmfnAkvDFnbdsxKTS7HEx1Mm7fUDUk98d414i83+w0509N1TG12jIgwym//t1w1h9vZ7eBeH+4rmnT8rNqieW7HmnT1hPzs9ppc/Mj16XW+mNrfCxmYlpGGiIep23cuB/TUSV/nj3k+s2/XY+JaWhq2eQ6v/LxuPuO30dV/zU6quCaeF/xPKPliweOr1Wb84qH99fmcfd6nL7+8bKFy1ePFpXlzPT2EU+/+tNFfa9+z7aVDufJtJmpdQMJBZ2su+/U1i/kh6mOSQdMh6HDDzKxjqUlWhWtm2j8BW0daMZhv0BERERERETUIaq1UC2VlFWDGCsV8oC76ecaoraKL/viS8Fhl4NrpSqJlvKr/3Y2MP/7aVaSdf1E47jtrWpsOlPxTbR84T5PyHbot2Wifoc/8MmW1j6dar9aHZfdDhRyQ8yG269SjaBC4f43TtTPl6tydyD9eqjWSevPEZVxMBO3lO44GjS+8A235B8RERG1kGtSd8wkWgvt1w10dKrz75b1UF0rBNdv8QMXTEyDU3DpN5PiYaNxmtvkgOTGb47tptG3LG0pXi43Wd+/mnajmz8m+z6z04S/7g6Gq5YvnHCgdfnj5auHDrrL0DPjDkmNebbUGcTzZ9r4NLuV1ORTs1t1dAkHlydrKsr1V4dMh6Hbly08SK5iilcG01YlK4H1D5rQ8vkokv+/+rG+X/NbF6umUEXwqiNR+UYA/FnOT7wONzPNbGlMTKubwqeVZ/tWqT5lkKcibbXPNHXjqaC/DOPT5v/MlthRJ+53mJiYmJhccjUuChZKAcaUUACSJIG1Ro5bbcf/uNKmOrYET6yH10/uPKA0BqUpURoj5wX7HRl9dJR43m6aR/UTHjcl73EfuaqthqnKpO2nztvs+VJdVtX04/OlpZwzhcujoLQPLTF8Ps21E2TORzDw02tU8lUZhFIaWmtAq2ha65zqbWIz0mbmx8Jfo8jeqNpc3ddudjwmpsWnuN60cYgIDwU+aYXSlACAROt6G7ZG6jpdfWc9fjz92WVgakuAduVbla3rN7N+Wsp6dnrLSfG6ndmWFGDKotrvxeOvb9q0/KxaYvmuR9q09cT8rHba4PxYA2sMcMT3e2eXiYmJaR1S6zl3nILrt3h8Jqb+1HLIbfvc3dFdnQ4XH52EagzTq3VR6o59y1MN5e41zA7vpuHq3f1w7UO22Hf5wt7h/3Nonf4Q4YhMm5pmu9QJaL5JTGKB+7/ls3JNawAZyf8957d04TR8JoIMzGZx1RLROpJtV+r+3UHbHxAbQ/i/6z71za6qZ/V9aN6wpYUJboazfIlWQ7DrC7rMnh+Ef1XfX+X+cztT6S49+RUnIiJaA40TgebRu75W8sf++nc4lFT2141g962QcbOZmcxxnTnMLsigJWkdplFxG5RZ3XumLKWdlR+rdaqtBg0ZVBBX0SsGjdgmGDFcf63Ti3q0DkNERERERES0QXj/k2hrhDV5TEzDUvgj3RDUJbf1r4bz/D15Lx4wSvGxKH6MNx6+LdV/ti9fq5YBLKR+unoLQzB937/5O56/Hy743LN8sUa3cEL7pOb04/ns9zMzKaYNTLP274vwGxwMoqy7p9Y/+pHQcYd1EK8cJqa1SFYaOgP+4Ohu5lpUB5N6G/efwq5hl7ChczhNpsOmaoVFZtbnhqRNzx/TZqWm2S6V8DvtqJaHRyyC730lbDK171xW4Lm1g4nL9ajTqiwHExMTE9Nqpvg4UX1wn+rju/wh0UpCs41l68gm0ti5PieYGXlWNK3D65tns39cLsMMGMNNWMrKDe9HC8q47u8qQG3XMilJyv323PA1379luJZzuIMJJtA5rbBH/bfP27on5me106blh2k7E7fj5aZNK1/mh2mexPJdj7Rp64n5We20NflpuWe5yDSzAF3LwcTEtDGJ6HBkS5JtaehW1V63vV8CXAPjxpi1ePi2FP7VphrWzo5bdXf94rF8N+v+mPnt+ovZem/p7+fUbmY5guUZkprT754Pbad6+2o25q/OEdtYAGG852g4311Zdah0GC0NnrtyQ0SHJ19YuSmvkCQJsiyDVhrGv165LF3D6Hp4awGlNSwsyrKEsRInvr657+7YMx0qVffmlS9XIlop1SlKfeo+Kzy9D0/uEX25W87g4u++6z07n3BHEY9EREREyyKH7tkGzdLVV9C0nQMAgG/sXKf5xdOcx5Dzh7B/c5i2HA3SOVKznOLBfIWqL++qWFHXtMbjVA3J6/8ibd1QLYd1lduHyG2ga/yuaXd1JyIiIiIiIjoCvipgCYn3P4mI6ODa60ytr0O2gNYaaZpCKUh7JlPCmI663upYJN2TJIXSGrAWSikkiYZSKhq3ZTrBNBqf4kbDFlBQ0EpDaQmGEo/vl1/ruAllPbBv4yX3FcIoaxbWSlsvAPXydy5zk1KS97IoYa1pCfASisuif/pEQ7RvRfGDCLNDxVvivOkw4m8rES1LdGBSAHSioZWC0grGGJjSoCjl4B+PoN2BzpQlrLGub30wDa9VmQ6WGvbtSUTHR059rPuvrcET/ElSo5+/gIm/1PVArV07po/4oRMiIiJakuYRWo7v7gBdHdvrk4P2CpP6PECp+k7f/pWHoebUDmzf8wf5XN2E7DDPUgwZttmYOe7pz6fqEpXB4oGDslTBU/8tuvInyxA2el4EP516+YmIiIiIiIhWkb9cXkbad0ZEREQHUVW1WmitoN2BpSxLlMbAWANrmsFLVCNghtQJp0kC7Ro4K6WQ6MQ1Kt4/8nOsqsZu1AVLUkpBa2mbBcwe/7RWSLVGUjV4jg+S8nn2DZLCGGnHBaBefhdJt4/WkvfStQODL6eWlykSLU/XPZT4c0juBR0mHYZ8W/dbPiJaOKUUdCJRnXPXwDlJU2j3tE918KpYGFMCLiq01u7r7w904aBERFvA7/f6GirVpzjNV7IPs89wjaiG+wxHREREh5LnOaCALMuQJCm0e1h0Os1R5EV1nZSmSRUNwZQl8jyHKU111iBHa9eYNnh1F2BhrEFZFrDWAACMKZEXuXv7jnGRJRKJNHHg6ph6vu3nI34Jm71mq3Tjz/36zll8BAqpVJYoFFkmZd2oVFaqqhS21sAaA2NMs4HyzJ+zoaD3Kznp54bYb8DB2vPcbiEzJCIiIiIiIiIiItpYvsZVKXlTfVmWmJZSV6+TBIlOkGhp+zRTP9u4uW9RlAWMkUbJxhhM8xzGSJ08lJLq5Z4q3rpOvQ6IArh2WVrDWoOiKGCM3C9oLoFEpZ4WhRsmCsgRND6WFER5drRWSJIUFhZ5kcNYA6V0bzsGADClgXLtwJSeHSHu0lMURAcwu1UN6RJ+3w6aDkM3J3HYyRFRl/pAJAdArTXK0mAyncBa416RIAcxOUA2j15yUIdr8CwHx+bBzR9UmZaTiGjVDLlIQP3W9f3Pc+JpDTk96upOREREC5PnORQADYU0kUbNUvE5RVEUKMsSUECitGugKxWU+TSHMWV9vlC9wq7Z6NgCsMa4V+1Jg+fSGBS5b/DsI0Ak8tq7faM078+1ta5TPADazy9aOg0zZEQlZWJc425ASaW00q4y2C+okh/X6NtaK5Er4gbPQ7UWXdhx/0jRi3e0cyMiIiIiIiJqiu9LHlUiIiI6COsCZEiD58neHkpjpLFzInXLvt1TXX1cR4T1NfR5LoFIfL1/nvt6fV8/PKDu2cp/7ld1LwBQUErquOsGzxF3P2E6lfsNxhqZklvQ+khZR3iGC2Lp+2qtkaYJYC3yPIc1Bjps97UPv0xJoqGVjzAdCSfTdV+BaKGirax1U3ZfkMOkQ+j4thDRMiitkCQa1gJFIa80SJPUfc6hFDDKMndjuT4wA/5JIS2NolVbZDE/AtNyEhGtLfc1DhsYxbrPp1oG5v6BiIjoyCRpIo1rARftoUSSJDixs4PxeIwsGyHRGtZVLI5GGUajEcbjMZIkkYgM7pht/WvwggRrpUIyy6pK1SzNcOGFL8BoPIJSCmVpkOfTKpo0MPDBq4Ccf9TLIicnM0N1nGPMxnmeS8/IWifIslEV7cKUBsZdg2ZZhixLkWapPHzrol2nWYY0lYdx4Spmmw2fW/Knqv9mz72CDvOW7aIc13yJiIiIiIiIZusEjioRERHNR7sAIbAWZVlA6wTjnR2kidTll2WJPGxgrFAdd8Kjj68uVkojSTSSJJW6aB8ssqsBcMxNSLk6XnmDYQalfDsshdF4hCwbIcsyWXYASZK6ewxS152mKbI0lYbL09wFCQnq9oN7CnV9v29/YKF1gtFoBOUagcu9idkjb5h8sMxEJ9JA2heO++1mU5kNjEm0BMF3trEBho55Qxy4d6Bl2hmNB6V1Ey9/nA5rUdM5SnLg1wDkwK8AnBiPcWI8llc1A8iSFIlOZnYc42yEcZa5p6HkiaGDRhYjosWI92txOqxFTee4Dc3HsOHUPqlLfOkQ7l3Dq4K+K4R9exLREsT71a50WPNOZ97hhxo63aHDEW0CqSSVismiLFGWBkmS4MITF+DEeIzxKEOq64a4WTbCzmiM8XgMnSQStdg3xHUVkVVy89BaI0szaC2vzcuyFC94wYXYGUmDZx9ZoizlrTvVOUH19/7Jn31YWy/DQYSjHXASM5SLHpGN5MFbidpcIlEKqU4wyjJp9JymyJIEWZJilKYYpxl2RuOqcni2wfOs/c6k6n7yV6Ocj0LPrIbud7uG6+reZd7h5+Wn35fWRbzccaLVFK+nrkSbadHrN55e/LnP0OGHDrds8fckTusmXv6udFDx+PHnWF//Lgcdr0s8vfhzn6HDDx2uz6KmM5SfX5xWTbx8XWmoeYcfatnTjdO6iZe/K62LeLm70lDzDr9o8XJ3JdpOi1r/i5pOl3h7jdNhLWo6RESANNJNEglCUhQltNbYGe9gnI2qBs+Fi9QcspD68YqL4uzfsJimCXZGY4zSDInWUNrVsVd1t+338uuqZBk+SRKk7k2FRVFAKYXxaITRSIJ7jNIUJ8ZjqecejzDKRjgx3sHOaIw0TQH35smyNFX7gplAKmFEadc/SRKMRmPsjEbu7ZGmrZlCw3g0wihz+fUNwNy9CzcboiNTbW4t8WxC+/U7KmzwTHSErJVX/gLulchJ/RUcZSMoKBSmRGnqJ4Xie8ZlWcKauiOjUBHR9pg9q5f9qlwwWPhXzmto9yqZJNFIU2nAg+ACTF5JrwBYiWJo5ELEuFfaA5AohjqB1vUTJtbCDYvWljHV9UrUmGoVTvqIiIjWUZKkgJLrIAXlIjxk0Gkix+fwIGssrD+Ou/MBwEeIkAgJvjJS6kbltXJyfJfX5KWpRIWe7k3cYNJtNBpBa1VXVFYVsRIV2b9qD7BQShpR+wrKRMv5SJJIJavW7nrQVdgaY1EUEvGh7fzi0HomaQHY6vzGNiNnWAsYl0Lu3CqM8gx3bia96/xrLZXM1r0esCwNSmPk/M3662N5zaHWso46XzG4LIdoiE5ERERERERERES0Lfw9deWCaVjU9fJSN54gSdO63tg3nrRdbzK0MNa4BsbCBI2leqq3Ad/U2d3SL8sSeVnAWIMkSaWe2ljY0sAUzUbYxTRvNMoqihJK6eoNkjP3/YOgKnVm5D6DZFTyIPcjWppkNsarFWUpQUXit0Q2RpD7CcNKhGgx/NYnv1s23mPS8u2i47I3neyb1oV/QjBe/jht45OEcuC31YFfa101ovNP7hR5ARM8KSTjAWmWAQDKooSxxr2QgYiOA/dzB3PY8ohPn5SqL6iM8VcW0mBGLirk79Q1oIGVBk++MY2CNKiRiIQSldDGDZ4TDaV0tc+thw8vLCLxgsafiWiweL/a131THHZ/SbRJkjSBAlCWBlopjLMRsixFmRewxmBaFji3ex7/+OyzeO78OexNJyisQZImGKWZOx+QBsZKKR93IagAlYpIqUxVSNO00dBWHpaSadWvojOwrjF0kkhU5DriQ90QWrsIFfX5SOLmKa/o8+cs1hqUrgLWzbWa/6EMnUxVUStlo7WCSiRy87TIsTvZw/Pnz2F3sodpkcNYqcC21iJNUuyMRgCk4bhMQ8n5k6thlvMvmZ6UX+keOJNzKt9AXMpDS4NnV85Ha3knbat6vIqPp3Fat+NRvPzrmo9tEa+nvu5E8zjs9rMu+434+7Lu+704H3Hadocth2VvF4ddvqF8PuLtw6dl5/Og04+XM05Dp7usco6nO3R5uqzreuoT5yNO66Jrubu695l3+GWJlz9ORIexrO2ob3/p07L2a0RE8/MBRCzg6s7DBsO+bjxNEigXZdmz7l47rAQx8/fz/T16Y0qc39vF3nTq7t1Xzamq6exf5S3TK8oSk8kE1hikqTR4Loxxdd0T5GVRTej83i52pxNMXL+iKKC1wng8RpomrspY2m75OnSpA6/bc/k6f/hBXSAXCXiyv6xqB+YCgNSTbRWXR7+hwxHN8pui/A4eWFiBzYoNnomOXP1qA1s10EMQ7Tk8egUH/yCKmEJ9o15G3+eIR0S0KYJdnYV7clRJw6TENUy21riIgNJ4piwN8qKoGjFbY+TBkdLAWIlgKBc68vSpNGqSV9WUZQnjG+UYaXTj5ycNof3SBGd0jd0x981ERESHVeQFrPVvXpBrJlOUMLDIq+OzRpZJxAjroghbHw1CSeWrRGa2LuqzHLt9A11fQWmtNML1kaGr8UuDaZ7DWiPLoTTgzkWkAlQiPqSpNOr13X2DXVMaiShRlq4CVx6wKksX4di9ss+/oWJRlPuvOUlfY+rLQbm8y7mTv96szmNcw+6q7I1/a1E4Pf9Ar4+Y7fJvJcqHb9ANWDecrEul5AHgOsK1j5Ct3Cv8gtkskQ22BSIiIiIiIiIiIiLq4uuXpa2TVKnWFblyLz3BKBshS6XRr7UWZVEA1tZvYbYW1tig3lnqnKWOP3yjoq+7NW5+/o3NhavT9sHOZLqqerNj/Vnq6/Pq7Y1aJ8hGo2p+8MvnArBYoJq+f0ujzMu9Sbqal9SJy/KXUhauKHz7Lt9f7kP4Nx5KkEzl2iMAQJqlSN09EAuLsnD3M1yjcT+uDyLSLqzz94loM7HBMx0b/0TidpLXEJTuAA13ExwAlNZQ7kaxC4gljfb8qxWUG7vx5BARraLt3s8tQ/DUmI+Yr32DZ3ktvG28Al3BlCWm+dQ1MKobIJXGX9C4BsxaLqzkQiUB3Otu/CvXjUtKKaRZisS/gqfzOsEvKffRREREh5EXOSxs3eDZtYI9f/488ulUjs9aIc0yV/lnYcoSu5M97E72Gg1ufaVk3ZA2eP2cq3T0x3s/kFYKZVliOp3CGlkOVVViGhRFCa0VdnbG1UNTxpg6IoOrtMynOUpTQil58NU38LXWVpGiqygQzsHPIuoTlM5TlUBVYewreFU4cykzreWNF9YalKZEYaTRuVdVKmvfgDmH9edjVhqcI3iDhgzv37hRNxC31kcBkYjchzdgGlb+66wnJiKihRsaqW5of9a/NA0tX2p30O1paLkP7X/Q5dh2LLf1wPVERDQf7jeJ6DjZqg45Sq5vsx5XIVEaCkDiGiNLg+JSGjj7YS0Aa9w9d1U3eFYaxkiDZ/9GRUAaR1s3U3+/3zdI1m4+fjmkfrlu9Cz11YULQGKhAYxGY+goiAoApIlEdS6CBsfSPtvXk9fBPOTNkvKWab/8EtXaRcCGRH7248v9h7CReJ3vNPHtHWR6ZVkCVsqjGt8FI5lt8CzTCtuXNavWB9SR0+ZTQXQc2WRmNo112lLY4JmIiIjWggWQaI0sy6pGzgpykVKW0uBIKSVPjLqnIJM0QZqkVdRErbV0S1NkWQbtokIL97BJcGGUJAmyNEWWjTAej9xreeqLEl1FlJSIjrXwbHG9Tg6JiIhWia8glAgGwRtyggpMGcAdb93DS5lrAC0NaDWSJK1TmiJNU6RpJucMaYpEJ/LgVF5UDawBqdhMEo2dnR0kiQzj2/lKxaEsg3GRodM0dZWTch7hz1l8ZaWPlpwk8paJahmyrHp4S6YtD2Mtj41S3VkqT30D6ARAGCFbS8TrybSqBIZr1O3fjqG1wmg0QprKOVuWZsiyEZJE3qoB1wC6riSWsvJJztPcsIfSU3vnyYYTVQITERERERERERERUS2qU3YRnlVQ9aoUUFp503JRyluXtdYYj0cShEwpJDpBmiTI0kwa/Po6cVd3niZSp+wjHksQkzqNRhkuvOBCpGkKU8rbFIuiqOq0ZTjX8NjKjQNV3U9QKKzB7u55mFyiOistDZnDenC4RsbS6FreEJ0kGomry06rdgr+voW7h+EaaftI0FrX9yv8NKTqXyI9p6kEUcnzXIKClKUrrzFS1yA7TaRdQ5L68pD7EeHtA6nblvKp2ic06rtZ+U3OzKYw02EtHPbuER0j/6R/nGJd/ePuff2PSjzfofPvGy7uH0+/r38s7t43fB//ZOZBx4/n3zWduH88XFf3WDxc3/BEVIu/N0O/P33Dxf3j6ff1j8Xd+4bvc9j93AXjHYzSDKNRhixNsTMaYZxl7vUtJcqycBc5o+qkf5Rm2BmPsTMeQ7nGRTujMUZpVl0oSePlutGSNIxWGGcyfT/P0WiMLJGLHf8EptYKOnjNe/N8sO1igoiOUrzf6tv/xMP1DR+Lx5t3fO+w+8t4/l3TifvHw3V1j8XD9Q1PNA8f8cE/bFR1Dxo8Wytv0IGrzEySxEWPSGBdhAnfmHaUphglqXugSRocj9IUSSoPNeVFDliJRAzAVTAm2NnZwSjLZublX0mXJe5hKyUPV+2MZfg0STDK3PnIaCyVrTo4H8lccpEh6sgPdePn4YIn9A9aSaWa7Z8TH6GiKKUstUJpSkymbQ2e5c0YSmmMs5Hk35WznL/Vb+SoGzzLujwxlvJI3YNpqZZhD65rXDXTTzX/W4qu/WK83+wazhs63FGJl6dvueLh+oY/KvHy9C1XPFzf8LRYXeUdd4/XT5y6xMP1DU+rqWu9xeu1azhvaP++4VZVvPx9+YiH6xt+Wfrm29d/XXXlK14fXcN5Q/v3DReLh+/6HHc/avFydC3P0P7L0jX/+HPcPU6xrv7x5+MWL2fX8g3tf9SGLlecusTD9Q2/LF3zjz/H3bvScetajrh7vNxxinV1p9UUr8+u9Rd37/ocd1+2eL5D5983XNw/nn5f/1jcvW94IloxtvqvM8KzD1yioFAUBfYme8jzHMYYuT/v6st9Y2EfKMM3GFauTjxNEozdvf40TeVe/2hc3ccfj0YYj0a48MILMHLjF2WBIpc3CCoX2EIiPMvbFpWLHC3dFIo8hynqum2t5A2McPXc1hqpJq/eCAnsjEbIXBRmH+wkS1PYIOKydXX7AKTuP5F67ixJ5R7BaOQaVktAN2uBLMsAAFPf4NlI1OvxeIQslaAuvsH0OBtJmwSLYL4+kMfsbyIEd0Qkqeiz/Deztcx0WD1s8ExERERrxb/CpeJeH5OmWRU1EMalgA6e5gTkQgAAEt+gpmo0JRcwDcbCukY98uoZaWRljIUBYKoo0c0zRDZ2JiIiOpzGK+DCBs9KNw600hDZRV0wBtYfn611lbE2eKuD62Qs4M8HlERcHmUjAECR5wAAnSSAtSgLifagla8Sqs8ZfMNrACiNaZynxOcUSkWRhI2pz1lchAprJSpFON2D6R6/KpVw8arFqGu4jLVQ/g0bSQKtJLrEC17wAok+4cd3jcql0tqdb1kpX1saqUC2vpG4i3jtGqE3CsSdw5XWHiLCczC9ziJo9lCSBSIiIiIiIiIiIiIKWPiGv/KGwyoQWHMg+eWCXeRTqV+XtzK3j2NhJYiZ1sDMG/ia9erj0bhqHGyNxWRvAgDV2xt9nbYPVoLm7YSGsN69OYyLIq01dJJU9dON4V19vu+mXSATrRW0rxdvoVxwD4nw7KdnMZ1OAQBZKm+m1FpLNGq4N0D65O4hJNo1Fh/V9fDSRwLG+BSXn2AFOG0OfxeqY2OnoxQ/ydb1RJvv7iO/xalrPN8/1jV+V/dl6ZrvsuffNZ+u7rF5h1+WeP59y9E1XFd3r2u4ruGJqHZc35+u+XR1j807/LKc39vFJM9RlgZ5WWCSTzHJc4xTeSIyy+Q1OF5RFphMp9jd3cV0OpVogUkCYy2meY7dvT3kReGiPWZV46WRe1p0dzLB7mQPu5M9nN+TNC0LJFphlKbyVKg1KMvgFTlRaprtQkTLFe+3+vZf8XB9w3td+8mh4y9aPP++5egarqu71zVc1/BEB+Er/6w1dWVlFOHZ85V5xkikYYlyIN0TpZHqBHvTSXWMl+P7LgpTIskkysJolEG5V8IBkLdBBPPwDz3547p1jXj9Yb4oCqlQdMtWlhIN+fzuLibTqUSWTlKUxmCST3F+bxd5WUKnCTKduPMLqRSO89cpGExFn9vOP6z/r6qErv9Wrswl0oREeB5lmYtwPXIRNsZ4wQsuRJam2J1McH5vDwpK3q4xkmGMtcjLAnvTKc7tnsezzz2HvekEidIYuzdx+GgeoyTF3nSKST7FtMgxyXOkWrs3a8yrWRhVecwWQ9AjTPvz+7WuNFTf/jPWNfxhxcsfp675xP3j1FUe8XB9w88rXv54OWNx/zjFyzXv8LQa4vXUtb64fjdb3/rt0tW/a3rrsp10LX9XPuYd/qD8dOJE7frWS5eu/l3TO+x66JruQcXLFacuXcsRTy/Wtbxd3bvEyxmnrul1dffi8eM0b74WJZ5/nLosOj9d3Q8qzkfX8njx/OfNX9/wx6Vv/vMud5zvg4rXy6Km68X58GnR86Gj0bedDl2vXdMZOv5Bdc132fPvmk9X99i8wxPRapA6d2nkmybSwLfZv25xaK2FKQ1yF1AkSyVSs7whsMS5c+dwfncXe5MJprnUl49GI1czW9fPhg2RsyzDC37hFzAaZSjLErt7e/j5cz/HZDKRt0KP3ZsVUdd716NHbSGV1PHXqvc5VpGRtdJIXCNm5SJLW2uxN5ngZ88+i8l0CuPeYDjKMoxHIyg/jqvTfv78OexO9jAtChhr5Q2K1iLVCXZGEnQFPtCbb7idSP16orWLXC15PXf+PJ57/jlMphOkLrK0jzbtshC0jZbI0T4NqPKmrdOyUQy9F7VCuh8vWGH+XtzQREREROvvxHgHSZJIA2MrDZ2qE3nfwCg48udFAcDK05DBcHmew1p5Jbv1VwDuPE6iDMpw8kp1ec18kkgDJB28kkcaIxnkeYGyDCJGdmo/K4nPW5adiIiI1ot1r6GTKA+ecZGUlZIKSK2lQjFJElhrkedTqUCMIk4o9+o6ibqgpWGvRfAKuzqCM1yE45BvUG3KEkrJ+YJSqjrIWhfx2Z+jFEUBVVVY1suRF+58xFWuVg9PuSjP+zV2ttV/7o/g72bwhvajv/L1Vy1tfK2VsjWuorWNKUtM9yaAlYgUVVn65bbAZDpFUZQAZB3s7OwgSdJqGmUhrxn0izfO5PV8RSHl6sXnMV1pdgz5VZVHY6B47OYUiIiIiIiIiIiIiEgkWt6OCACFa+g7G5BE6lgtpJ+P3KyUQunGMdYgSV2DaeXeLuimUTVYriZX19kWRYG93V0UeSGBQoCZqNFyL7/ZkLlepprUjddzstEAEpDEoChKeetkwNdzp2l7oA7f4Bhu+aShtAvOAiBsTSDL3rzfEd8R0K6B+Wg0wokTJ5Blo6qdwjTPpf69Gkny696DyTpv6hFvbetnLRs8z9yX6ktrIn6SzSdabYteTwd9ktEPH6dlieez7PkR0fFZlf3ciQsvQJpojNIMI/fkYpokUK7xkFxgAXCvhCncq+fTJHGvwhFFkcMYA610dJ4gDabSLINKNLIklSckswzjLMOJ8Q5SnVQRD6VBUFlNbx6N05T4vGXZiWiLxOcp8+535hXP57DzO+j+Mp7/vOPPK57PsudH28VHIfDRFOruBoCFVgpaqyp6QpokgHubgwWQZs2Kz7Cxc5JICh+Yihsb+wrK8LOxBqUpASgkSSrnFEH/sMFzWUqlozS8Dh7UygsYI5W/MqL8quavVFin2ximrUO0lDNd2vj2zr69tq1ee1ef1xhjMM0lQrVE3cixN5ng3O55TPIptE5co2dplO7LbjqZVA+ppUmKUZoibZyPFSiKAuf3dmGsxfjECYl8Xcr5m7UW0yKfPY/pSLO5DcsgHqFNV/emuL4mTusmXv449e3P4/3+ooefV7z8Q/NBFIq3T24/y9X1PfWfh/Y/asc130WLt/O4nIdaVHnE++9FTfeoDd1u+/oftWXNd9nTjVNcrqsiXs44bao4n6u+nvrE+Tjo+ov3u33lEQ/XN/y2itdL3/qJt0ef+sYjCnF7mQ/Li2gVVbXEnUmHDZ7dGw51ooN69EaIZ2j31kBphCzDTCYTGGOQJGnVaDds8AxXNx6qpm4t9vb2MJlMqojISRRpOkmS6k3QYX2/69CglKraEzT6ubp5YyzKsoCxploKpRXSNMHOzljuCbj7EXX9frNuPXGBUmRaJfJCGmt7vsG4H9+3NfBl4PtlLoL0iRMnJPqzaxcxmUpZhCUmwT9cUBRHVf81uhBV3+913SLWs8EzERERbZ2JiyTYYC2si67snxL1Eu1ep+5eFaPchUvinqgsTfjUozT2MdaiyPNqmuH0vdI1pNZKzTzJGTenaU1xByIiIupmuyI8y0FUuYbBEpXYSLQIdx4Aa1G6ClivLEuY0sjwxsAamb5nrasO9fWdLQ2elVJIkxSARVG4is9geGNM1XBXJwmsrSuCfattqfCUh6eUUtD+XMLNf99qppnzh2aU5/Av29oYGFVlVlBtLP+shdb1A2Wlkegb0ihaGnsDqBp5WxuUpTVVeWWjrFoHpiWChX9Fn1IaRVliurcn3bMMgIKBnYmuvS//mr64e0sXz8707R6WiIiIiIiIiIhonVhfX8bE5FNrDajvKtGBmxGC66ElRocEHwGs1LG7enZAQbv6ZOveyujfxOgb+aZZBqU1jG8Y7KYbNmAO7/PH9fLTqbzR0Td0jhtHG2Nk2n7KQb6rDhVXGFX3YJxqGAmUJvmIisTnwdT14b4Rt5+ADoKDlGXhGnzXDZ6TRoNxYd10Y8YY5NMcRZ7LWxMBZJk0fpbBZ5p4u8/hGyHDDFTZYNqmVG+eAbftxD3izyuIDZ6JVlT8ZHGX+InjOC1LPJ84ERH1mXc/N5lMMMmn2JtKdMG8KJA3noRM3EWWXBxorWGNa4hkTPUamyRNAOWflAye4ISSCw13Aldai8l0iufPncPu3h7yQuZZFAWmRQ6lFbI0wyjNqqdaZ4TXDu1nkUS0BJt2fuTHH7q/jOd72Pn3iecTJ6JDa4nwbIwBLNzxXRrVGlNKBamVCkPb0tDYlBKd2ZTS2NlaA6VUVSFZVVD6aBDus2dhoZRGkvqGzLmbvhvfLUtYUWuDhtF+umkqD2DJOYpCmmaAcvNzlcLznjiEQzcqqVxlVk2WQSqp666+QttHjgCAspSKYh8G2hqpAPMPkllrYYwv/7pCNsuyKjpFaUoUZQEbvBEjTbMqMnRZFnh+9zz2plOcGI0xSlNZb3O+QQNweY0q7+JTMV/B5zvMV8oUivf3cfKO6/hEdBDx9hknok0Sb99xIiKi5Yj3t3GKxf27hiPaZn31pkREFNSHxo0gq/pS+cN3r0lFslKq2t8aU1aBMJSSenBPa+Xqz+uppEkCrXT15sa4UnamwbP77euhp7nUw6dpCp0kULp+UyLc/QJft96cvK8Ibtcczv1yk9VaYZTK2wvP7+5ibzrBtMhx7vw5/OPP/hG7e3tVHsNo03D3F3x+iqLEZCoRrqFl4onyb010eVaqUV4+KvR0OsXe3h7O7+5WaZLnGI0y90bJuMFqUOEPNPLv/6rqxmlLuBVefb+D5Hr7JvPxd1+peouKG+gftzVt8Fx9DQcmIiIiWne+YVOipcGynPTXx/kk0RLt0TWOkcY5ciFkrYVxDY9U8ANrARchsiwlwqLnI0L6Cyw5B5STP+Ve31OaEtMid42p5jkFiQc8ykRERLRerLUoyzpaAlyDYbjoCGVRoiykghUAsizFifEORqNRFWFZ/qsrSI2VKMx5nkMpYDwe16/Sc5Gf4SoqtdZVxGOlFKwxyPMcgD9P0FXD4TRNpXLILWrVMNudjzQb8SoA8taJ6VTeZFHNL26N7CZYl0DLZ/ehPkUKjv9BBbbv5uq3KhJJ2y/PFACgk+byzMzVnR8ZE8xAAalOqigVpjTIp1N5u4aTpWkV5VlrXb1uMJSmWTMPvSngOg06P2vrRkREREREREREtNbiSjEmpjj5X/K5ri9utnq01qAs6rpd6eYbBUvgER8AROrB3efwvrt7U6C/196YAYCilDcN1u11XXgOV4E9Go2gtEbpgo2UZSlveHZDVw2eK7PzaKrzX48mf8g0g8bIVb4ksrVS2kVYTqo8+jclenmRoyzlzZBJkmCU+QbK0j7Bl0fYYDssL+PfJOnenghX1kmaQFeNo8MIzo7ccgCCEqjWazVs+IFp89M+Gr0lgvu0mM5EUZ+9e3P8tN+ZrFOaVzz+qqV5l7Nv+Lh//HnR3eM0dDj/5M/Q8eL+fZ/j+cT948/zdo8/x6mv/9DhYl394+5d/ePP83aPP8cpXq9Mq5361idTexpabvH3oW+8uH/f53g+cf/487zd489x6us/dLhYV3/fYFlrDYXmU45wr4aRp0Id3zBZ6eaw/kTfvZrdK90r5ZNMGlAVRQHASvRB5RpHW4ssTZGlKRKdwJQGk8kERVFi/xPHsF9b/6MTl+9Rp1VZDqb1TEO3n77h4v7x5zjF/fs+xyk+HnSlvunEuvrH3bv6x5/n7R5/jtPQfDMxhSneruShIwsTVRimLmJEWZQo3BsYfOPiVCc4ceGFGI1G8qBUcOzVSgMWsMagKEpp8AyF8XiENE2glJwTeEoraKXcdKTBs7EGeS4PRu2Mxki1lhML5RpiB19X485NpKF03UMpiVgtDYLL6gEsncgbK7R2D2f1iXYNQQk2ulfnIL5dsoU7D7KuQleWXyklldFueRLtXxFYN+qupmhlurKufIWyRMBG9fYNDWMMptMpjKvgVYmGAqChkCYJxtnIRcCw2JtOMcmnGGcjZF1v0Ojk8jhzzhV3i1MwZMs22bZddqWu4eLu8ec4xf3jz32pb/i+/n3DdXX3Kd7/9w1/XP27unf1jz/Hqa//vMNtWxpaLruTPexO9qrtzCfffej04v7x5zjF2/W2p77ymjfF6zVen3394xQvX/w5TnH/+HNf96H9h6a+6fT17yunoeMfdPg49Y3f1z9OXcP75Yj7932eNw0dv2+77esfp3i+8ec4xf3jz33dh/bvGi7+PDT1jXfQ7a2re1f/+HNf96407/B948Xd489xivvHn7u6x5/j1Nd/09ZTX/84dQ3f1d2nuNz6hu9K8443dPiu4eLu8ec4xf3jz3E6bP+uFO9/4/3y0OnH/ePPcerrz3Sw1FWu83bv6t/3OU59/ecdbtHbZfw5nk/cP/48b/f4c5z6+jMdLBH1s4CvJbbB5+pvYYxFWRbyoXpzstTd+3rd6j6+0rCQACYqeLNiWUrAkmob9bfrw/6N/YFbJtdpPJY6ZIksLQ2erW02GPbbfXj/308nmFTEj9OklPvPTV8peQOib0+QZVkjKrWJArbkeQFjSigXtM0P76v8pTykDOGWXymJjA23PzQugrYNgrGF9eYyvyBnLhpvVY1f9QqHi3NK285vIv77Op3MNnj2Bt2zOiJrGuGZiIiItk02kgsZG7waJ9FJdWGVF3njxEtp1yCpKBqPnfnXrVsrr2xXrsGUUgp5XqDM5YJNog5Kw+YkSZCkqbtoE4Wbrn9le3XhBQQXC7xwICIiOjR3OPURnOEqQtMkQZalGI/H2NnZwSgbyavyAEwnE9iyRFm6htBOkiTIsgyjkYxzYucEAGD3/C7yaY6iKKVRtGOMkbc55LkbP0WWZRiPx43zAqVkGYuiqKJIuz4ojWsgHXSVykoLa41Mx1d0FkUVoaLxIJcXTCQ826j+qiowXbEFFbr10C5ZX3nt+lg5T9K6jkxRlLI8UpFcn9f4Sm/r632hqgbndRRrC60UxuMxXvCCX0CWSWNwWxrkZYHClNWCKaWRJAnSLDjfChfuwIZMo1FAREREREREREREa6+qF2RiaktBTXHwX/N/192YEnkuQUd8oIw0zap76b4xsAwtdc6+wW5VV2xdnX6a1uOmadXfWv/mZqkblrcrW/kcBCQpCt9QWMvy+7c+jjLoRBpbe375tZuvVlKHrbVGmo1kIKUkgrVrsC0NjhXK0kgjbpmIGyfFeLyDNEuhtESA9m0TiqKQebvPWkt9d5KkGI/GODHeQaI1UMryTqc5SiPBXPx8jakjaZemhNIKaZpiNBphZzyuGkPL+FN3D6HOJ1x9v606VmsYbog6xdsD09YmuAcQpIPfVurtZlXpxga9Jmle8firluZdzvOTPZyf7OHEeKc1+f59019U9zj1LV/XcvaNFw8fL0/X+L57PHz8ed7u8ec49fUfOlzX8sf943z7FI8Xf563e9/84vXEtNopXr9Mw1Lf96Dr+9A3Xjx8vH66xvfd4+Hjz/N2jz/Hqa//0OG6lj/uP8qy6vXnaZIiTVxDZNdgeTrNASgkWQa4BszGWBRFDgtAV087ytOQvkHPaJQBCtBKoSgK/Oznz2J3r56fn0eaJEjTFEVRYDKdSoMm+Cc45elVVE+9rq64fI86rcpyMK1nGrr9dO0vfYqn48XDxfvZePih84vH70rxdOM0dH8Zz9+neLz487zd++Y3NN9MTGGKtzMf59jCojQGu3t7yIsCiaukHGUjjEcjnNjZwXg0wijNoJXCZDrB7mQilX7GYm8yQV4WSFNp8Dx2lYQXXHABlFI4v7uLvckeiqKQysuRnE+UpUQn/tnPf4696QSpe/3ciR2JeHN+bxeFi74AV7EZjq+UNG4uCmkwrYMIDeEDWOlIKliLQho7l1FEiCbX3ffuGcz/3ajIqnqHJe+WJ9HIqvz75akbYMti+UowN6qrLN7d28M0l4fQtJJ1JA2eX4A0zTCZTnFu9zx2d3cxnU4xyXNMixzjLEOWyFs0siTFJM+xN524iR8NXxJtacgw+w0Xd+/bfw4dPp5P1/zi1Ne/b7iu5ena//cN3zWfvuWI+8fT7VqeocsVjzfv8F2pLz/bmuYtF6+r3L14PXWtr0Wt321JXtz9sKlvun39u4brW799w3dNN059/Yemvul4cT6Gbq9x/uIUjz/v8HEamp+4e1fqWh7fPZ5e3+d507zj9w3f179ruK5y8Klv+K7pxqmvf9dw8eehqW+8OB9x6toe5x2vazni6cT949Q1nb7UNV7cPV6eOA3NV9w9Hi9O8fBxmne5Djpe13LE04n7x6lrOkP7x6lr+Hi54hTnr2/4ePp98+9KQ4fvGi7u3rfcXcPH0+2afpy8eD5x6hqvr7sXT8+nePnj8ePU15/pYKlru4vXT9/wXePF6y3+HKe+/j71LUfX8vSNFw8fL0/X+L57PHz8ed7u8ec49fVnOlgi2ldjY5EtJvizUQdcllK/XRSlBAcxJcZZhlGaYZSmSHWCwpTIfRRoafYMYyWYyCSfYjwaNcbxaZJPsTeZwMJHMXYNm0tpQKwTDe3aAljYuiF0FH02S7NqXATLD9f4ONMSjdlYCw2F0ShzbyKUN0xKg2eF1L3p0JgSpTGYlgXyssAozZClGXZ2xshSyYfWqgp+IssF6EQabF+ws+OiMSfYOXEC/+SFv4gkTfD8+fN49rmfuzci1g2q0ySFsQbPnz+Hc+fP48R4BzujsdzzGI+wc8EFSFy9+fPnz2MykQbPfiXKvQZX8vG9gKpha7jOiQJ1W+e12TzWMsJzeGNwSCIiIqL113ZMt8ZUEZmTNJEnMF0ERijpNhqPAWth3BOS1kV/ThKNosgx2d1zHRXSNMF4PI4iMwo//2k+lYssKxdqxhgY9+Sbu6SQcxD/485HzIokIiKidWLca+mSJIGuKiVnIx/H5wnT6RSlKaVyRknFozG+pW9wfHYRIPb29lCWBjrRyIsCxVTOJ3wUhfF4LK2Xpdaw5h6Y8ucjFmiMb905ymg0kkpeF6HBn4/oJEFRligm02p+2j1kJQ9vGXeaIucmdYVlcK5RnXu4/r7epOWnqtF0tZz+HMWXlU40iqJA7pYH7lV5afimCxewQ8owWD+JRNuI14UpS0z29gArjda1lvMtrTWKskDhomcAEv0ZcT4Wmdqm6eboK5eJiIiIiIiIiIjWX1AXyMS0b3L/y5+NLQjWIkk0smwErV3k4+CNit50mks9uQvkoVw9cVmUsG31rvWsq/rtoiyr+/xpmsFaoMwLmELeFmitlXpzLZGcw+nmRQ5jXN17kBlrpfFy4d5gqADkZYHz587DlqYK8uHr4nMXNTlJUihXty1vPpSJFdO8rkd2ywdAolXbuv6/YoHpZK+an9ZSly5vOqwbaMvyS2AV32jaM0WJyWQPMLK8SaIxGo2gdeKr+es823jdMjGFaVZ4y8uGH1acOre3uyaLGpp3kWcbLREREfAfPv8gAOB33/62uBfRysmSRBrtulfN+AY5RVFUr78x1sAa694WIw10tFbuNTs5tE5cNOb6act6fBcxWiXIixy5i04YJj+81loaTWtp3GOMhbEmOuOQeJSr53jPi7jfISKi/cTHCX8M1lq7w2rdUFXB9Us0tE5QusazZSG/5TxAGusmSYKyLGHKcub4Pp1MMZlOMBqNkGUjFGWBsiiQZv61fAm00tX5wWg0QpakKNwr54yRV9756Xl+/j4VRVFFp9ZJAuXyl+dSGZy4hs5ynpOgLAqZX5bhc3/2ZyjyAr/3+79XzccYFwVaSRTsmBSXnIuEyxWTN18Ydz6UIs8lnz7vPlWRnlFPFz6fqn5doDVu/SiZb3j+pLVGNhphlKSYFDmm02m1fqvyc/mp8rdg1fbjli9NM3zucw+gLErc/Hu/Fw++luLv0bpjfqjNhTsnAADn9nbjXsCA/nQ43I6Xa9PKl/mhebB818OmrSfm52jNe5523PmZd3n7HHd+iGh7dNcGEjW5avea8tuPqu65S9Rj6xrcSn2xr2eN63+r4a2FNRZpKvXevh46pHUi0ZRdY2Cl6qAb/peMJ29KTBI989nXWysldcw+M75q2dcD++Wpq8plOev64uZ9A99d8pW4Bt0FkkTq0Y0pg/xIofk6fyhV15NrBa1U1Sg5nF+aphJAJa/LL0l0oz6+uTxAEtwPkSjPoeCbX61HopCLaBN8lG1FNphzkynOTSYotUbpvyx+eNvcPxzewe//rGeE5zkTERERrb/ClChNCWMNyqCBEQCUxiAvcmnIZH3EZTec6walYCGRBUtTojQFrDXugsugKEvkRYFpmaO0BtBytuafEDXGAEoiHyrtLiwg3atXvDdS8NMSafm4EhER0Trxb1MoS4nCUJTyKjmffKPjvMjdMV8aAPsGtHAVmaWLAOFqN+VYba1EZ9AKaZa5YV1Eh0TDunOMoiiQlzlKF225KEtMXeNq6yIEKy3TDZOFVOrK+UghD0e5cwt5JZ50l/ElOrIML68ILEupMLWuktSfU1TJn3NUn323jmGq/s1zFcmwzLsoS1hIJW5j+Yuiyr+MWU/XrwdfAWuMcevNR9CWqNVKaygtFdK5rwxWcr4l5ymyTk3pz/n8Eg78CcumUU7hT3iOFvxtfa6IiIiIiIiIiIjW30wdGRPTfimsNQ26+XpbY01Vf1oag6kL4lG6Ot4klbczVtPygTi01LnneV1/H6ZpPpVGu8rf75/CQhpVW2tlPmUpb3k2Baa51NNDSeTmaT6tlgGqysFMnvw9cqUVirLEZDqFMWVVZy3173U9tdRxy7R8OwTj3pIo06vvUyitkY0kIrRv/F26+wEWFmVRYDKdSlsG1+jbuvznRQFYiyRNoF3bBF++EnxE6uxl/MLdVzDS2Hpm/c22T2Biir9zxloY1Em2lea2444i1fFkFannds+t9hISEdHSPPTgfwAA3PS23417Ea0e60+v6lOXuP1u/ORl1XTFN2Jp+d07vlwVBQNV/zn1aV88PRH0XwHtMSCPDvc7RES0n/g4ER/ra9Fx3D1pHgRnqD5JL398D0Z1E/d/N88zmsfLmfMG/8T7AYXnIz5StZ+m9JNzEFOWGO/s4POf/zym0wluvvlmd45SR5joWpZqmYP+0uA6Pmdx5zvu7zjv1XlRY/nqmya1en7hEsm4dflbP25QBs3l8SO25+vAJAuuIthU5Z5lKT73wOdQliX+zc03x2Otpfh7tO6YHwKAXzhxYePzc7vnGp9jfvi+4ehguB0v16aVL/ND82D5rodNW0/Mz2LF522x+Pys77xtVfLTtXzzOu78ENH2WGCtGm21ektyVfAuQIl7I7NWUO4NgL4xrtS7yrhKqaq7VjJ8NU0FTPYm1ZuY/RsSd3Z2cGK8g73JHvb29qB1IgE6XJAN/6ZC37hY3uKcztRz+3pwqU5X1XJNJhPsTSY4sXMCJ06cqKZbBzkL7iXALX9poJSqolBrrVCW0vB4PN7BOM2wl0+xt7crkaa1gna/izxHntfLKdXlUg7GNCNmAxZlKQFg/LzyIkeR50iSFEmayBskdeLefB1EmA65unCi+tZL+xYhm3m9vZ+fSoRnozRK7eIo+4lU95uqMQ+p7cbQMGsa4Xm+HyIiIlp/jSfMXOo8K6ieNq2fXPMNa/wTauEpglw+BFNzDWHC8fzTbr5f+FSc/3vmx1qYanmD4Y4xERERrZOZY3T1A1jXeFd++6Fct+DYW58PuIpLa+U4747vtnGMj47bYffwZ55je/wTTK/OYzCPcH7BiU/zHCgaL55PYxp1fzkviYcNyzgua/kcn1M1zq3i6TTKKsyTL//6PKqxnI0fyWDcddBPY9p1d1jrlq/uJ1E2pELP+oIlIiIiIiIiIiJaczN1Zvzhz74/vo44TFKna63EgvXRYS38Gw99fbC8JbCq90VULwsfFKOum/fD6EQD7g2AUKqO7FzkMNa6NwcqlzSSavj6zcxQqlq+Ro6qz2H9uIXSGqMsg9JA4d7k6JdfpuHfYOgjW0t+fTAR694o7addlAUmZY6yihjtA4jIMiitJQK21tU4flkBqaOu5y/TrctX3saYpCl0Ig1MTfVGS1m2al2FP1HdOH+2+Me6ezDBfZFGCu/huN9yDFlt6tnzz6/6Ms5Scy6yXUSrciKizfPlL3wRAPDbb/2duBfRypEnKrtZaasikQCDiICNU7LGr9nziTr6YXjuICeBDV2nFtFw8WirYKGREg+A+x0iItrP3McJu89xucE/oR5xjXT7jtpdfdsmuT81cyZSPQ3vnoyX8w6paDJFiZ0qwvMUN998swznGugad5ISTkMmLON79XK2LfH+JTCzfIjm0RjR1mcbwaz8+ZmfQpjHNvsvb5euqcFF8JDJWSMNr/0ijcdj/O9/9mfIpzneviERnuf+Hq045odo9XA7Xq5NK1/mh+bB8l0Pm7aemJ/VxvwQER3MPLVqRECw0bhq1qr2Nq52je7HV40kXaPK6m2BLqqyhevnfofj+8aVwaQjrkswTrw8jVrmqK66qq321dMty9Oaz2D4at7uYz2uq+d2/X2+g0nI/Kyt6sSte+OjH0c+t8wnEC9vp2jUarq01fbbZABU907k+wqcn+Y4N53CKA0TR3j2owT/H07v0nVazwjPcWvznkRERETrz/b8yIWC+1RFeHZPnVZPqNXDtvH9/ROc9ZOczfHjc414+v6nWqYVSkREROvEH7U7UxVFIkxyzKsiTlh/fG9J1bE6rmtw03LTlsrL2TQzvZZUTa8612ieiVTd/fBumGqeM+cXzXzC+mmGw7csczX/+CdYnqpg6zSzfEHeZ5cvmEeQbx9Ne+bcKkp+hHr28/zMLHqVpIzCadv6bR5wlfAyJBERERERERER0dqLa874w5/en7i+19dBxz/W16/WdcRS7ypBJsJxm1Gfg35u/KpK2NdFx6maZ1QfPVP/Hi27n0+8rH6+wW/3hanqjevvULic9Tj1ctQ1yvU86+Trw/1c/LRluLp+3zSW0UWXrlJzOatlavtplEVUfvzhT8tPdX+s+t38Dqwy9T/OPbseSxpoRl3sZ+3aZZGI6Eh85T98GQBw4+/+dtyLaO11ni3M9Ig71Bc2UZeGeKw2beNtO+53iIhoP/FxQqkkGqKNq42c7Tq3ZR3fW6er/H+z5x5eI8JzPsW/ufnmqk7EV5o2pq2Uqx0W/q+Dzr/NfoO1zifSNn7reNXy9elZ/iD6hwLkVYTGVCOcOHECD37+85juTfC7/+bt8dhrKf4erTvmh2j1cDterk0rX+aH5sHyXQ+btp6Yn9XG/BARHYweVK9GFPCbTFDP2qxyrWubq60rqF5uDrFgjRl6LRXCLZ2AeHy5nyCDRiPY5rBR9pzZLlWZtGW8bfDuzkBf1bgbsXX5g5G6RqftEm8hXvVddZHYlZK/z09y7E6nMDqB0Un1fQnJtrWILaxr6fqtZYTn2Sca9k9ERES0/vxTmkNT6ROiFPazFqV7OlLGMbPjtUx73+kH84jHWYVERES0Tnzj1N5kjTuO1ymuGxiS4mm0pXicIal1Gi15iIdForA33YMCMBqNUJQFClNWw8XDG9Myn5b5+2Glv+0sw7YU522/fLaleJyu8WSZyp5Ul188fjid0paNYYw1sAqAVtjb3QMMkI1G8eZHRERERERERES0luJInvzhT+9PGMnY/UiDREl15OVonMbwza3PRP3dlOb/qSIX+7c7B294DlPXT2N86VY1GW5ElJ79Fknew3nXZREPO7M8M8sU5N+2TVuSiacRzMtPox43zEOwvvjDn44fH3fcItpG/TYZbtorSv3k5/9jHZaTiIiW4Btf+goA4A1vuTHutZpcNDv/rNC6H8CyPO6yvzyT38y/2Nb8H9oxN3peu/0OHYusaD4Vyu+//Gb+xdblP133HM+Hx4l2LJfl2rTyZX5W26blh7YTt+Pl2rTyZX5oHizf9bBp62lV8qNVGKdM6gLaagQk4p/UkhhrYY2BThJonWC6u4tvff0bUBZ4/ZtviEddS6uyfhZl0/JDRKtLa+2aPcp/yrfmtFaOI8odT6I3xsENvy6N3mjNuRs/W3v/Z9vvf217/lf0/t9z0X36VbSWEZ6JiGg7SUS2Ooqu6Uh9/VclzYv53+78x+MfNBGto23//jP/251/IiIiIiIiItp8JVDVbfi/TfCWQp+K8LNxdSbGypts4BtDs/6BiGjbGVPCmBLWlLD+bWkoYWDkt+9miuYb1Uz9ZrU46iwT06LTtt//Yf63O/90cOrvfvb3LHEioi31fz78dQDAb735jXGv1eQjHLjoBd1s8BzY6krK+R7xKnUqfzD/ca/IhuY/WVCIZ1PGXY7U2u136Fgk1jQ+b/33n/mXP7Y1/40IT5uPx4l2LJfl2rTyZX5W26blh7YTt+Pl2rTyZX5oHizf9bBp62lV8qO11P/W8TTltwTdDG/nq6qKxBh5BXqiJcJzMZng29/8JlAa/NaNx5ufRVmV9bMom5YfIlpduqoqDx6E8ZGcVfVfjS3H6BgYtv+QP5j/uFdkQ/O/ovf/9syC2qUsERs8ExFtsbWrWLE55G07ww5dq37Kkyp3AjdQiZL53+L8F7aIOx2I0qO405Fau/0OHYuZBs9b/v1n/rc8/yta4bEsPE60Y7ks16aVL/Oz2jYtP7SduB0v16aVL/ND82D5rodNW08rkx9TBq3NbLMexNWLKKjWig/prqCsxsMP/x8YJRne8L9eHw+2llZm/SzIpuWHiFZXWeZQAJRrSOiPK1Y1GzermWr3+kDTcsghWiil7Xbf/9n2+1/bnv8Vvf+3Fg2e/9v/d3bYVkNERBvnPz3yHwEA/+qGfx33WkkZJrAuYsEm0OpE3Gl/esr8b3H+jd2NOx1ImVwQdzpS67bfoeORmegSZcu//8z/duc/r0NxbAUeJ9qxXJZr08qX+Vltm5Yf2k7cjpdr08qX+aF5sHzXw6atJ+ZntTE/REQHY8scCgraNXK2kNbNVYPn+hkboGpIGDd2bn/QhmhRUl1s9f2fbb//te35X9X7f0Ydb3uSIdjgmYhoi61dxcp47EMZbIRsbxJ32ld+Yof53+b874zjTgczncZdjtTa7XfoWMQNnrf++8/8b3f+V7TCY1l4nGjHclmuTStf5me1bVp+aDtxO16uTStf5ofmwfJdD5u2npif1cb8EBEdkNGwaQabjZBohURrlKZEaQoX5rkZ6RktzZ2bfxEtgS62+/7Ptt//2vb8r+j9v7Vo8PzET368IZsNEREN9f+cW80DJxERERFtt7/7T98BAPwvb3h13Gur/V/f+C7AclmaTbs+2rTvEdcP0erhcWm5Nq18uR+neWza9r+pNm09bdp+ilYbjyNEdFR4fCMionn8zxdKE+JR9otxr5Wj4w5EREREREREREREREREREREREREREREq0I9evYcIzwTEW0pM/kpAECPL4p7EREtBfc7RES0Hx4n2rFclmvTypf5WW2blh/aTtyOl2vTypf5oXmwfNfDpq0n5me1MT9ERIfj9zu/9at/Gvci6mWta1Ko7pJf/jMRrb+75Ht9XJ66/Y6402CM8ExEREREREREREREREREREREREREREQrixGeiYi2GJ8kJ6Kjxv0OERHth8eJdiyX5dq08mV+Vtum5Ye2E7fj5dq08mV+aB4s3/WwaeuJ+VltzA8R0eH4/Q4jPNNBMMIz0QZzEZ7tnXfGfZZKufkywjMRERERERERERERERERERERERERERFtJDZ4JiIiIiIiIiIiIiIiIiIiIiIiIiIiopXFBs9ERERERERERERERERERERERERERES0stSjZ8/ZuCMREW0HM/kpAECPL4p7EREtBfc7RES0Hx4n2rFclmve8v3ufR+JOy3ULbfcAgD4mxO/EvcaZN78rLp588P1Q7R83I6Xa9PKd978cD++3Vi+62HT1tO8+dm0/RTzM5+jzg8R0WH5/c5v/eqfxr2IelnrmhSqu+SX/0xE6+8u+V7bO++M+yyVcvN96vY74l6DMcIzERERERERERERERERERERERERERERrSxGeCYi2mJ8kpyIjhr3O0REtJ/u48S3AAAP3Xg3AODeH3xfOr/iHQCA2z5xDwDgpkv88Julu1xWzKPvAQC855bPAAB+VPV4FQDg+vu/DQB473VVj3aLms5A85avjxh26tSpuNdCPP300wAjhlXmzQ/XD9Hyrc92LN/Xxz99GgDwwKknAADXPibHkaHnDWcfvRcA8ODp9wMAvvoD3+eoj0vreT7UnZ923I+vmqPd7ravfBeF6+kw5s3Ppu2nmJ/5HHV+iIgOy+93GOGZDoIRnok2GCM8ExERERERERERERERERERERERERERES2eugqws5Fy7gMAvOT0rdL5ExKh4MWfvBAA8McP+OGdV8iTkvd/5TYAwPdvlOHurSIdOG64R91w3tlPS+SeD5/qiNxz6koAwFefugEA8Ojdr5Xez0hkhfdcI5EV6vH6yBPNHzorTzS/0nV9/AMd+Yv1PBH9UFf+nevvPwfsF/HBRTK6zkUy6nPV738ZAHCPLxdvweVDRJun60ny3v0yjxP743GCqFPnfqczYpa46vdl//BHd8v+4WLf45i+D4tankq8/5tzOp35cs5++jUAgFtOuQg/Pa469dcAgHveeal0mLN8atH+Ys58VaLyifejM8sbmcl/XN7OgY83RLQws8cJiZz00Af+HADwqni/6zz+Afn+4u7NPD+ZLZdVIxHlPnaxRJR7ibteuOm65n7ZH+//7ldlPb5yJsLcoqYzn3nLlxHDjta8+Vm39TNzntIjPu+ZvU5tv16Lz58q/rzoE/Lx0Od7UV/aTPF2vGrOuuuOD0tgZ1x78qT8EdVjxfU1M/z1i5vOh1w9jz/u+OPRh2/5EnCAyNFdZst3vc+HZvOzv3Xbj2+u49nutqd8F4XraRHmzc+m7aeYn/ksKz+99ZK8L7c/3pcj6uT3O3GE56tPvxUA8Nk7rgAAXFb1+QcAwDfe9UUAwP/9vt+Rzn8g2+8TH5RIoJ96gx/eeeovAADXXP4oAOCtZ2S4O+oJCzeccsN5vcvzccnHG37tSQCAeuMPpffV8sU989hvAo3x+sh03qW+AACQvSxw69c78hd7Ssb/+B/I+Ce/1+x9uiv/zjfeJRFO3+hnHLtVysN+Ssqjz1PfkOvSy325eIcsn/vwIADgVkZ4Jto8jPBMREREREREREREREREREREREREREREtHjq0bPnZh6/eNw9sffHp54AANwWRSbwT9I99rqBT7p9syMCmuv/Htd/9gk3F9nn9t8GAHz1CnkSbuYJwU9eDoTj++63y8d7qicSfaSgRwAA13Q8Adebv2q53HS+0j4d76EbJVILbngLAOA7MlqwXB068+H7uye3b385AOA7N3RE4ltw+RDR5oifJPdPbH//X7c/Ae3xONGTPx4niDrF+506MoLbn8xEcpTt+PEPSOSKP35Svic+MkUVsaZzu/X9e74PlWHbeRWJ75EDLo/XN1xv/6H5ig3LZ2XR+4vO8SKdw/npu/2/i+Bxv9vf1pGMXPncKOVz7w86ImEc9nhDRAvTdZx4z9MSmbFr/+b3yx92sTi6hltXM+WyavrO6z23X//Yf3w9AOC98Xpa1HTmNG/5LipimFIKAGCjyCjLihi2rubNz6LWT5flr5+e86gOM5HPXESxme9R1/ds0ed7tNH6t+PVVNW/DI3wPFBvPdGcZsp3zc+HZvLTY/334xvimLa7rSnfReF6Woh587Np+6lF5WdVrm8WlZ8ui84P78sNu67ozR/vyxF18vsdH+HZR1J+6xfaIxN7t7rhPnWH7K8+fo1sp354Hwn5zQ8PjFT85igyc9T/jOs/G6H4ZQCAr39Wvq9vOCORjGciPH9Q8lmN77t/Vj5eXkWUdtOzEjn54SjCs9ebv2q53HQub5+Od/qM+15/TfL5pjfJx3q5OnTmw/f/ZwCA05/9QwDAm7727wAAl5/8iet/uPL5W0Z4JtpcjPBMREREREREREREREREREREREREREREtHitDZ5f+c578Mp33oPbXgHc9oq47+KcffoJnH36CfzoyTP40ZNncPYZ4OwzwQCXvBa45LV478l34L0nJRrbSnDLdc0Vn8E1V3wGjz0KPNb20M0z9wLP3Ivv4C34Dt6Cm955G2565224Fl/CtfgSHnoGeCjM77wuuRS45FLcdPIduOnkO/Cjp57Gj56SpwaJiObzLQDfwoOP/DoefOTXcdMl3U+Rg8eJfjxOEA3wNICn8bFbnsDHbnkCtz32bdz22Ldx03WXBtGdAeBSAJfilXd/G6+8+9v40BXvx4eueD8efBR4sO171WXB34eL3/ltXPzO+Zfn7Kdfg7Offg3e8+mn8Z5PH3z+lQXn67jNXz7vAPAOXH/FZ3D9FZ+ZXQ+PngYePY3vXPEOfOeKd+B6ANcHvb21Pd4QbQH//exz8aVX4uJLr1z7/eDauu4G4LobcP0Dd+P6B+7GQ48+jYceDdbDM98CnvkWHvrkl/DQJ7+Erz7y5/jqI38eTkEsajorTilVRT8jWrTr7/+yJP89Oux1JRF1c8elxx54FR574FV4ya8CL/nVeKDD4/kQHQdud+uB64lWAa9vDor35RaK9+WIBngZgJfhg2/6B3zwTf+Ak9/rju4MAPed/ALuO/kFfPwp4ONPxX0X5+orL8LVV16Eyy6XdPXVwNVXBwN874fA936IN370SbzxoxIdeSW45Xr4zBV4+MwVePOtwJvlZbVNV18HXH0d3oQn8SY8iZMnH8XJk4/ia7gCX8MVOH01cDrM77y+9xPgez/ByY8+iZMffRKX/do/xWW/9k/joYiI5nbXXXcdKH33u9/Fd7/73XhyC9Xa4JmIiIiIiIiIiIiIiIiIiIiIiIiIiIhoFezb4Pmmr3xbUs8ThQflI+Pdf8N/wf03/Bd8+PYL8eHbL8R1F/v0Glx38WvwsadvwMeevgH33/1a3H/3a+PJHL0qcsM78NgD78A11wHXXBcPBDz+yffj8U++Hy89eRteevK2qvtNJ6/ETSevxL2f/Bbu/eS3GuPMxS3Hx04/gY+dfgLXv+61uP51K1A+RLR+njkDPHMGP77icvz4isvjvp14nOjA4wRRv2f+HHjmz/HjV7wFP37FWwbvR175unfgla97B776zW/hq9+c4/uxpO/Diy97FV582avw46efxo+fbonU8IP3Az94f7XfuuXU93HLqe/X/S+5DbjkNtzzFUlzW1K+jsyCyuead38E17z7I/jx6Xvx49P3Vt0f/+YTePybT+Dad9+Aa999Q2Oc0Noeb4iIVsZrAbwW773/Srz3/ivxnVteju/c8vJ6P3r7I7ju9kfw4te9BS9+3VtwFYCr4kkAC5zO8eiLbNbXn2gx5Hv0tlPA204B995+L+69/V6cBXA2HpSI5vPoe4BH31Mfl665G9ddczdecv+38ZL7l1c/RkREdBz6rl/6+lMP3pdbLN6XI+p39UXA1Rfh8jM/xeVnfhr37XTy8nsl9USEPqjvnbwX3zt5L6752otwzddehM9+9k589rN3wlqfboO1t+HrVz6Jr1/5JK554w9xzRt/GE/m6F39MuDql+HNb3gSb37Dk3j4PuDh++KBgFs/+Ju49YO/iTMffRRnPlqHnj/50Z/i5Ed/ijs++DLc8cGXNcaZi1uOr7/vInz9fRfhGw//EN94eAXKh4jW3p133ok777wz7tzp2muvxbXXXotXv/rVePWrXx33Xqh9GzwTERERERERERERERERERERERERERERHSf16NlzNu7Y5/EPXAgAeOx15wAA7215Og5wEQ8AXPdNiab26LxP9z0jUfIe/+TLAQB/jC8DQ6bzjER1e8/t8nG/aHBtfP7++IG4j/OKdwAAPvSJewAAr5x5elKe+vvYjWcAAG9z87+46i/5eujG0wCAF3/FTafq7/h8XPN+AMCPot7AqwAAt90vjwnddN2lUf8OhywfItocZiJPb+r/9wsAgPd8Up4iv6dvP9uDxwkeJ4i6zOx35t3OuvYbC/s+uO/nxY8AAK452/H9c85++jUAgA9DpnvPO910O75HncN3WVi+YvPls1NHPnt1jDe8fNqX/+9ulPFxw1sAAN+R3rjnK3J8i4cfnN+DHm+IaG7VcWJ8ETDPfqHr+LAh4nJZW349nf51+Tj0uBFb1HScecv3u/d9BABw6tSpRvc4upm1UuUWd/d8/9jT7q0Rf3PiV+Jeg8ybn1U3b3661s+iLH/9tJ/n9J23zF6H++tKOX/5zg1/DQC451K5zhy8v+w4b6Pt1r8dr6aH/PXCJ74NYAFREZ9x39fb7wYAvGRB043Ld93Ph+L89Fn//fhmOK7tblvKd1G4nhZj3vxs2n6qKz/xdcy6XN905WdRFpYf3pdr9u/B+3JEB+f3O7/1+38DADjzQfl8+SGjJN/6dYn6+eaH7wIAvLElujEA4Na3AgDsm58EAKh553v1PwMA3PrBPwQAfApfAoZM52rZEZ75rHy8/PI6uvIQPn+fekPcx3lK8vOuP5D9+X0z0a8lavPXz8jx60/c/OvBJF+nz0gU1Ccud9Op+js+H4/9JgDgsqg38A8AgI+/64sAgJP3/STq32Fg+VTHdyXrWXUc74loDd0l32s7MIrzXW742LXXXgsAg6M6Kzedp26/I+41GCM8ExERERERERERERERERERERERERER0co61gbPD934GknPAA89E/cFcMmlwCWX4pXv/ghe+e6P4Konz+CqJ+Wpu6Nw/f3ncP395/Do2Sh95R48+pV78MpL2p4OBM5++m6c/fTd+OoP3o+v/uD9uOXiC3HLxRfiuiq9HNdd/HLc+4PP4N4ffAYPfPppPPBpeWqw1Ss+ArziIzPL8aFTwIdOAd85/ef4zuk/x1kAZ+NxiYiGuORy4JLL8dIHHsFLH3gEjwN4PB7mGPA4weMEbbBLXg9c8nq89Adfwkt/8KXu73nk8W9+Bo9/8zO4/nWvxfWva4kaccTfh7976vv4u6e+j5deeileeml/tIaL3/ltXPzOb+Oed17aHXWnzRHn67gcuHycm05eiZtOXol7T70f9556P1568ja89GR/NIxVP94QbbOLL70SF196JX701NP40VPd50Nnn34CZ59+Aldddimuumz+/QcdDX8cv+qG1+OqG14f9x5sUdNZNqVUa/Qza21n9DOixbkUwKW46RMfwU2f+Ahw6lbg1K146Gngoe7dKRHN45LXApe8Fu89eSXee/JK3PvJb+HeT0r0wEXi+RAdB25364HriY4Sr28WjPflDoT35YgO4Xs/Bb73U5x5wxU484YrcCuAW+NhjsHpM7dJuho4fXXcF8D3fgJ87ye470/+Avf9yV/gqcsvwlOXD4v6vwjfeNdd+Ma77oJSUbr8C1CXfwH3fa8tujNw9el/hatP/yu84bLfxBsu+008Zu/EY/ZO2Cr9Iaz9Q9xx2RW447Ir8L7T/wzvOy1Rn1s99RfAU38xsxzv+jjwro8Db3rfVXjT+67C1QDaipGI6LDuvPNO3BlEg7722mtx7bXX4tWvfvXg6M6LcqwNnomIiIiIiIiIiIiIiIiIiIiIiIiIiIj2o+4/e85eHHU8++i9AIAPn/4SAODaT3wbAHCTfxru0fcAAN5zWj7+/ifuARA+LSdPuz1048sBAP/95DkAwHuv8/3FQzdeCAC4Fx8BANz/CYm+dnH01N3ZT78GAPBh3AcA/dHenpHlf8/t8vGer/RHdQs9/gFZrsde177c3STfH7tRCuaar7hyaQwTkmgPH7tRnnp8m1vOan0MzIcvn1ue+gAA4NG7W6IdhgZOl4g2n5n8FACgx+4pyGr//usAgD+K90sOjxM8ThAdVNd+57pbngAA3Ha/fI9vus5/j+V78/gH5DnzP37yLQCA+5f2fXDfu4sfAQBcc7b9e1rvB+XzzP5y4PJ4D90oy4V4fzpwOv35ig3LZ6+ByzdjzvFmy2fe5d9/+KUdb4hobjPHieq8UXa4L47PK59x3+/b3fe79/xqPc2Wy2o666I/xfvPxz8g+8/O43hkUdMZat7y/e59crw4depU3Atwkc/aDI169vTTst3/zYlfiXsNMm9+Vt28+elbP4e1/PWz/3lLl77r1Op88dT3pcPvfxkYct4453kbbYf+7Xg1zV5XNPvH/PfqAcj35Y/c96W+7vPnIb8NAPjxDX8NLOA6YbZ81/t8aDY/+1v//fimOJ7tbnvKd1G4nhZh3vxs2n6qLz/rdn3Tl5/DWnh+eF9ukL7rnW68L0fk9zu/9at/Kh1ufSsA4Mz7/gEA8AeXPwoAiIMUX32rfNE++74rAABf+wPZTk/6AavpyMeP/sEXAITRjiVa8ekzfwgA+LWP3gUAeKPsNiqnz0i00DvwFwCAa/7ALU+0QFeflu/FZ/FFAMDlJ3/SHCB2tSz/mc/Kx8tdPoe69euyXG9+uH25u0m+v35Gop0+fLkrl8YwoZcBAL5+Ro4LfxKvj4H58OXz2K/9JwCAeuMPoyEiA6dbHe+VlIMaePwnojVwl3yvbRC1+SgoN9+nbr8j7jUYIzwTERERERERERERERERERERERERERHRylJXvQL2Rz9odrzqFe8AWp/8azrrnhT88C2fAQD8qOrzKgDA9afkGZX3djzRV0VUuOFKAMB3TsXTEVe5iCP3dD355p94u+b9QMv4NcnXhzoio/gnA//4gaiH9wp5kvHR+Im6nvlff3/0pGEVyVDyW5Nyu+2UlMe9rjxiM9OLnsi89wdRPnuWr7Z/+RDR5pl5ktypnxR3+w0eJwAeJ3rLh2iIvv3Og26/89V4v+O+5zMRtTq/L2Lw9+ExiaDxQO/3QFz1+/J9/6O7owgPPcvTzX2/H3OROf7b/tMZnC/3fX1xHNGvx1WnOiKTHXZ/cdjyuV8ien7nlvb5x8s9E8mw0ixv3L6g4w0RHVrXcSKOoFgdJ9x56Yd6zkvXXWe5rIrO9ePO+2+QiEbvfWfP/nNR05nTvOU7NGKYj4Q2NPKZt/CIYWtu3vwMXT8Htej1032+0i4+3+m8TnXXp3UkdBfZ7GI5X/xqV4Tnw57v0VaIt+OVM+d1R/y9ij3+aZneAzPXCcPqt+bVWb6dx8nVPh/qzE+HdduPb7wj3u62rnwXhevpUObNz6btp4bmZ12ub4bm56CWlR/el2u/rui83vF4X46ol9/vVBGenTqC828CAC67rNEbTz31JNAaubnpahfp+bOfkkjQ9WQkgvQ3Pi4Rmd/YEZH59Bn3/f2aLOeb7oinI576hkS4v7wrcrGPWPyYy0/Uuyb5epdqj7zsIzt/6g1RD+8piUSt4ojIPfP/xruiSNGu3Kwrt5qU28c/LuVxhyuP2Mz0oojad1wW5bNn+WrN8T7FCM9Em4sRnomIiIiIiIiIiIiIiIiIiIiIiIiIiIgWTz169hwfvyAi2lJdT5ITES0L9ztERLQfHifasVyWa97yXdeIYetq3vxw/RAtH7fj5dq08p03P9yPbzeW73rYtPU0b342bT/F/MznqPNDRHRYfr8TR3gmGqJ6swMjPBNtHkZ4JiIiIiIiIiIiIiIiIiIiIiIiIiIiIlo8NngmIiIiIiIiIiIiIiIiIiIiIiIiIiKilcUGz0RERERERERERERERERERERERERERLSy1KNnz9m4IxERbQcz+SkAQI8vinsRES0F9ztERLQfHifasVyWa97y/e59HwEA3HLLLXGvhfqbE78Sdxpk3vysunnzw/VDtHzcjpdr08p33vxwP77dWL7rYdPW07z52bT9FPNzMEeVHyKiw/L7nd/61T+NexH1stY1KVR3yS//mYjW313yvT4uT91+R9xpMEZ4JiIiIiIiIiIiIiIiIiIiIiIiIiIiopXFCM9ERFuMT5IT0VHjfoeIiPbD40Q7lstybVr5Mj+rbdPyQ9uJ2/FybVr5Mj80D5bveti09cT8rDbmh4jocPx+hxGe6SAY4Zloezz1jz+LO60sRngmIiIiIiIiIiIiIiIiIiIiIiIiIiKilaVs9TgGERFtm2//+L8DAF7z0pfEvYiIloL7HSIi2g+PE+1YLsu1aeXL/Ky2TcsPbSdux8u1aeXL/NA8WL7rYdPWE/Oz2pgfIqLD4X6HiIiGeJoRnomIiIiIiIiIiIiIiIiIiIiIiIiIiIgOjw2eiYiIiIiIiIiIiIiIiIiIiIiIiIiIaGWxwTMRERERERERERERERERERERERERERGtLDZ4JiIiIiIiIiIiIiIiIiIiIiIiIiIiopXFBs9ERERERERERERERERERERERERERES0stjgmYiIiIiIiIiIiIiIiIiIiIiIiIiIiFYWGzwTERERERERERERERERERERERERERHRymKDZyIiIiIiIiIiIiIiIiIiIiIiIiIiIlpZbPBMREREREREREREREREREREREREREREK4sNnomIiIiIiIiIiIiIiIiIiIiIiIiIiGhlscEzERERERERERERERERERERERERERERrSw2eCYiIiIiIiIiIiIiIiIiIiIiIiIiIqKVxQbPREREREREREREREREREREREREREREtLLY4JmIiIiIiIiIiIiIiIiIiIiIiIiIiIhWFhs8ExERERERERERERERERERERERERER0cpig2ciIiIiIiIiIiIiIiIiIiIiIiIiIiJaWWzwTERERERERERERERERERERERERERERCuLDZ6JiIiIiIiIiIiIiIiIiIiIiIiIiIhoZbHBMxEREREREREREREREREREREREREREa0sNngmIiIiIiIiIiIiIiIiIiIiIiIiIiKilcUGz0RERERERERERERERERERERERERERLSy2OCZiIiIiIiIiIiIiIiIiIiIiIiIiIiIVhYbPBMREREREREREREREREREREREREREdHKYoNnIiIiIiIiIiIiIiIiIiIiIiIiIiIiWlls8ExEREREREREREREREREREREREREREQriw2eiYiIiIiIiIiIiIiIiIiIiIiIiIiIaGWxwTMRERERERERERERERERERERERERERGtLDZ4JiIiIiIiIiIiIiIiIiIiIiIiIiIiopX1/wOldwNIdZCwEwAAAABJRU5ErkJggg==;" vertex="1" parent="1">
          <mxGeometry x="520" y="520" width="762.56" height="31.55" as="geometry" />
        </mxCell>
        <mxCell id="6x7_ktclrAlzUBMvFhtq-14" value="&lt;div&gt;ColumnName&lt;/div&gt;CUSTPART" style="whiteSpace=wrap;html=1;" vertex="1" parent="1">
          <mxGeometry x="190" y="270" width="120" height="60" as="geometry" />
        </mxCell>
        <mxCell id="6x7_ktclrAlzUBMvFhtq-15" value="Table&lt;div&gt;ORDERITEMS&lt;/div&gt;" style="whiteSpace=wrap;html=1;" vertex="1" parent="1">
          <mxGeometry x="720" y="40" width="120" height="60" as="geometry" />
        </mxCell>
      </root>
    </mxGraphModel>
  </diagram>
</mxfile>
